<?xml version="1.0" standalone="no"?>
<!DOCTYPE svg PUBLIC "-//W3C//DTD SVG 20010904//EN"
 "http://www.w3.org/TR/2001/REC-SVG-20010904/DTD/svg10.dtd">
<svg version="1.0" xmlns="http://www.w3.org/2000/svg"
 width="256.000000pt" height="256.000000pt" viewBox="0 0 256.000000 256.000000"
 preserveAspectRatio="xMidYMid meet">
<metadata>
Created by potrace 1.11, written by Peter Selinger 2001-2013
</metadata>
<g transform="translate(0.000000,256.000000) scale(0.100000,-0.100000)"
fill="#000000" stroke="none">
<path d="M1698 2125 c-2 -2 -24 -5 -50 -8 -109 -13 -271 -66 -383 -125 -79
-42 -162 -108 -268 -215 -55 -54 -100 -97 -102 -95 -1 2 4 32 11 68 18 85 48
141 100 190 34 31 39 40 26 45 -15 6 -15 7 2 17 16 9 14 12 -20 27 -165 74
-451 107 -614 71 -215 -48 -336 -226 -341 -505 -3 -155 42 -266 155 -380 115
-116 243 -185 371 -202 75 -9 87 -9 127 -2 23 4 35 3 31 -3 -9 -16 -86 -48
-115 -48 -16 0 -28 -3 -29 -7 0 -5 -2 -57 -4 -117 -3 -98 -2 -108 13 -103 9 3
60 22 112 42 127 48 242 78 340 88 51 6 52 6 15 -4 -98 -24 -224 -63 -265 -81
-90 -39 -213 -103 -216 -113 -6 -16 -12 -214 -6 -219 2 -3 17 3 31 13 91 64
275 142 426 179 148 38 223 46 395 47 126 0 197 -5 275 -20 90 -18 200 -49
260 -75 l44 -19 -5 52 c-2 29 -6 68 -9 87 -2 19 -2 59 2 88 6 57 15 65 83 77
47 8 160 63 226 110 128 92 185 204 185 370 1 134 -44 274 -136 420 -118 188
-279 306 -465 340 -35 7 -197 15 -202 10z"/>
</g>
</svg>
